<?xml version="1.0" encoding="UTF-8" standalone="no"?>
<!-- Created with Inkscape (http://www.inkscape.org/) -->

<svg
   width="272"
   height="792"
   viewBox="0 0 71.966665 209.55"
   version="1.1"
   id="svg1"
   inkscape:version="1.4 (86a8ad7, 2024-10-11)"
   sodipodi:docname="weather station.svg"
   inkscape:export-filename="weather station.png"
   inkscape:export-xdpi="96"
   inkscape:export-ydpi="96"
   xml:space="preserve"
   xmlns:inkscape="http://www.inkscape.org/namespaces/inkscape"
   xmlns:sodipodi="http://sodipodi.sourceforge.net/DTD/sodipodi-0.dtd"
   xmlns="http://www.w3.org/2000/svg"
   xmlns:svg="http://www.w3.org/2000/svg"><sodipodi:namedview
     id="namedview1"
     pagecolor="#ffffff"
     bordercolor="#000000"
     borderopacity="0.25"
     inkscape:showpageshadow="2"
     inkscape:pageopacity="0.0"
     inkscape:pagecheckerboard="0"
     inkscape:deskcolor="#d1d1d1"
     inkscape:document-units="px"
     inkscape:zoom="0.95454545"
     inkscape:cx="136.19048"
     inkscape:cy="396"
     inkscape:window-width="1920"
     inkscape:window-height="991"
     inkscape:window-x="-9"
     inkscape:window-y="-9"
     inkscape:window-maximized="1"
     inkscape:current-layer="layer2"
     inkscape:export-bgcolor="#ffffffff" /><defs
     id="defs1" /><g
     inkscape:label="Template"
     inkscape:groupmode="layer"
     id="layer1"><text
       xml:space="preserve"
       style="font-style:normal;font-variant:normal;font-weight:600;font-stretch:semi-condensed;font-size:29.2111px;line-height:1;font-family:Bahnschrift;-inkscape-font-specification:'Bahnschrift Semi-Bold Semi-Condensed';text-align:center;text-decoration-color:#000000;writing-mode:lr-tb;direction:ltr;text-anchor:middle;fill:#000000;stroke-width:0.499999;-inkscape-stroke:none"
       x="35.997475"
       y="44.236023"
       id="text12"><tspan
         sodipodi:role="line"
         id="tspan12"
         style="font-style:normal;font-variant:normal;font-weight:600;font-stretch:semi-condensed;font-family:Bahnschrift;-inkscape-font-specification:'Bahnschrift Semi-Bold Semi-Condensed';text-align:center;text-anchor:middle;fill:#000000;stroke-width:0.499999"
         x="35.997475"
         y="44.236023">18:56</tspan></text><text
       xml:space="preserve"
       style="font-style:normal;font-variant:normal;font-weight:300;font-stretch:condensed;font-size:13.145px;line-height:1;font-family:Bahnschrift;-inkscape-font-specification:'Bahnschrift Light Condensed';text-align:center;text-decoration-color:#000000;writing-mode:lr-tb;direction:ltr;text-anchor:middle;fill:#000000;stroke-width:0.382205;-inkscape-stroke:none"
       x="36.092361"
       y="13.662056"
       id="text13"><tspan
         sodipodi:role="line"
         id="tspan13"
         style="font-style:normal;font-variant:normal;font-weight:300;font-stretch:condensed;font-family:Bahnschrift;-inkscape-font-specification:'Bahnschrift Light Condensed';text-align:center;text-anchor:middle;fill:#000000;stroke-width:0.382205"
         x="36.092361"
         y="13.662056">17-6-2025</tspan></text><text
       xml:space="preserve"
       style="font-style:normal;font-variant:normal;font-weight:600;font-stretch:semi-condensed;font-size:25.5663px;line-height:1;font-family:Bahnschrift;-inkscape-font-specification:'Bahnschrift Semi-Bold Semi-Condensed';font-variant-ligatures:normal;font-variant-position:normal;font-variant-caps:normal;font-variant-numeric:normal;font-variant-alternates:normal;font-variant-east-asian:normal;font-feature-settings:normal;font-variation-settings:normal;text-indent:0;text-align:center;text-decoration-line:none;text-decoration-style:solid;text-decoration-color:#000000;letter-spacing:normal;word-spacing:normal;text-transform:none;writing-mode:lr-tb;direction:ltr;text-orientation:mixed;dominant-baseline:auto;baseline-shift:baseline;text-anchor:middle;white-space:normal;opacity:1;vector-effect:none;fill:#000000;fill-opacity:1;stroke-width:0.499999;stroke-linecap:butt;stroke-linejoin:miter;stroke-miterlimit:4;stroke-dasharray:none;stroke-dashoffset:0;stroke-opacity:1;-inkscape-stroke:none;stop-color:#000000;stop-opacity:1"
       x="47.933037"
       y="115.44041"
       id="text15"><tspan
         sodipodi:role="line"
         id="tspan15"
         style="font-style:normal;font-variant:normal;font-weight:600;font-stretch:semi-condensed;font-size:25.5663px;line-height:1;font-family:Bahnschrift;-inkscape-font-specification:'Bahnschrift Semi-Bold Semi-Condensed';font-variant-ligatures:normal;font-variant-position:normal;font-variant-caps:normal;font-variant-numeric:normal;font-variant-alternates:normal;font-variant-east-asian:normal;font-feature-settings:normal;font-variation-settings:normal;text-indent:0;text-align:center;text-decoration-line:none;text-decoration-style:solid;text-decoration-color:#000000;letter-spacing:normal;word-spacing:normal;text-transform:none;writing-mode:lr-tb;direction:ltr;text-orientation:mixed;dominant-baseline:auto;baseline-shift:baseline;text-anchor:middle;white-space:normal;vector-effect:none;fill:#000000;fill-opacity:1;stroke-width:0.499999;stroke-linecap:butt;stroke-linejoin:miter;stroke-miterlimit:4;stroke-dasharray:none;stroke-dashoffset:0;stroke-opacity:1;-inkscape-stroke:none;stop-color:#000000;stop-opacity:1"
         x="47.933037"
         y="115.44041">31°C</tspan></text><g
       id="g30"
       transform="matrix(1.1208751,0,0,1.0050007,-15.350012,-8.3982397)"
       style="fill:#000000;stroke-width:0.946902"><rect
         style="font-variation-settings:normal;opacity:1;vector-effect:none;fill:#000000;fill-opacity:1;stroke-width:0.473449;stroke-linecap:butt;stroke-linejoin:miter;stroke-miterlimit:4;stroke-dasharray:none;stroke-dashoffset:0;stroke-opacity:1;-inkscape-stroke:none"
         id="rect15"
         width="3.6215184"
         height="21.587866"
         x="16.965584"
         y="150.25726" /><rect
         style="font-variation-settings:normal;opacity:1;vector-effect:none;fill:#000000;fill-opacity:1;stroke-width:0.473449;stroke-linecap:butt;stroke-linejoin:miter;stroke-miterlimit:4;stroke-dasharray:none;stroke-dashoffset:0;stroke-opacity:1;-inkscape-stroke:none"
         id="rect16"
         width="3.6215184"
         height="18.807829"
         x="20.587103"
         y="153.03729" /><rect
         style="font-variation-settings:normal;opacity:1;vector-effect:none;fill:#000000;fill-opacity:1;stroke-width:0.473449;stroke-linecap:butt;stroke-linejoin:miter;stroke-miterlimit:4;stroke-dasharray:none;stroke-dashoffset:0;stroke-opacity:1;-inkscape-stroke:none"
         id="rect17"
         width="3.6215184"
         height="17.2409"
         x="24.208622"
         y="154.60423" /><rect
         style="font-variation-settings:normal;opacity:1;vector-effect:none;fill:#000000;fill-opacity:1;stroke-width:0.473449;stroke-linecap:butt;stroke-linejoin:miter;stroke-miterlimit:4;stroke-dasharray:none;stroke-dashoffset:0;stroke-opacity:1;-inkscape-stroke:none"
         id="rect18"
         width="3.6215184"
         height="7.0343795"
         x="27.830141"
         y="164.81075" /><rect
         style="font-variation-settings:normal;opacity:1;vector-effect:none;fill:#000000;fill-opacity:1;stroke-width:0.473451;stroke-linecap:butt;stroke-linejoin:miter;stroke-miterlimit:4;stroke-dasharray:none;stroke-dashoffset:0;stroke-opacity:1;-inkscape-stroke:none"
         id="rect19"
         width="3.6215184"
         height="2.8268397"
         x="31.45166"
         y="169.0183" /><rect
         style="font-variation-settings:normal;opacity:1;vector-effect:none;fill:#000000;fill-opacity:1;stroke-width:0.473449;stroke-linecap:butt;stroke-linejoin:miter;stroke-miterlimit:4;stroke-dasharray:none;stroke-dashoffset:0;stroke-opacity:1;-inkscape-stroke:none"
         id="rect20"
         width="3.6215184"
         height="12.158258"
         x="35.073181"
         y="159.68687" /><rect
         style="font-variation-settings:normal;opacity:1;vector-effect:none;fill:#000000;fill-opacity:1;stroke-width:0.473449;stroke-linecap:butt;stroke-linejoin:miter;stroke-miterlimit:4;stroke-dasharray:none;stroke-dashoffset:0;stroke-opacity:1;-inkscape-stroke:none"
         id="rect21"
         width="3.6215184"
         height="11.145323"
         x="38.694698"
         y="160.69981" /><rect
         style="font-variation-settings:normal;opacity:1;vector-effect:none;fill:#000000;fill-opacity:1;stroke-width:0.473449;stroke-linecap:butt;stroke-linejoin:miter;stroke-miterlimit:4;stroke-dasharray:none;stroke-dashoffset:0;stroke-opacity:1;-inkscape-stroke:none"
         id="rect22"
         width="3.6215184"
         height="9.7100525"
         x="42.316216"
         y="162.13507" /><rect
         style="font-variation-settings:normal;opacity:1;vector-effect:none;fill:#000000;fill-opacity:1;stroke-width:0.473449;stroke-linecap:butt;stroke-linejoin:miter;stroke-miterlimit:4;stroke-dasharray:none;stroke-dashoffset:0;stroke-opacity:1;-inkscape-stroke:none"
         id="rect23"
         width="3.6215184"
         height="21.587866"
         x="-74.909874"
         y="150.25726"
         transform="scale(-1,1)" /><rect
         style="font-variation-settings:normal;opacity:1;vector-effect:none;fill:#000000;fill-opacity:1;stroke-width:0.473449;stroke-linecap:butt;stroke-linejoin:miter;stroke-miterlimit:4;stroke-dasharray:none;stroke-dashoffset:0;stroke-opacity:1;-inkscape-stroke:none"
         id="rect24"
         width="3.6215184"
         height="18.807829"
         x="-71.288361"
         y="153.03729"
         transform="scale(-1,1)" /><rect
         style="font-variation-settings:normal;opacity:1;vector-effect:none;fill:#000000;fill-opacity:1;stroke-width:0.473451;stroke-linecap:butt;stroke-linejoin:miter;stroke-miterlimit:4;stroke-dasharray:none;stroke-dashoffset:0;stroke-opacity:1;-inkscape-stroke:none"
         id="rect25"
         width="3.6215184"
         height="3.4923575"
         x="-67.66684"
         y="168.35278"
         transform="scale(-1,1)" /><rect
         style="font-variation-settings:normal;opacity:1;vector-effect:none;fill:#000000;fill-opacity:1;stroke-width:0.473449;stroke-linecap:butt;stroke-linejoin:miter;stroke-miterlimit:4;stroke-dasharray:none;stroke-dashoffset:0;stroke-opacity:1;-inkscape-stroke:none"
         id="rect26"
         width="3.6215184"
         height="7.0343795"
         x="-64.045326"
         y="164.81075"
         transform="scale(-1,1)" /><rect
         style="font-variation-settings:normal;opacity:1;vector-effect:none;fill:#000000;fill-opacity:1;stroke-width:0.473449;stroke-linecap:butt;stroke-linejoin:miter;stroke-miterlimit:4;stroke-dasharray:none;stroke-dashoffset:0;stroke-opacity:1;-inkscape-stroke:none"
         id="rect27"
         width="3.6215184"
         height="13.955404"
         x="-60.423813"
         y="157.88972"
         transform="scale(-1,1)" /><rect
         style="font-variation-settings:normal;opacity:1;vector-effect:none;fill:#000000;fill-opacity:1;stroke-width:0.473449;stroke-linecap:butt;stroke-linejoin:miter;stroke-miterlimit:4;stroke-dasharray:none;stroke-dashoffset:0;stroke-opacity:1;-inkscape-stroke:none"
         id="rect28"
         width="3.6215184"
         height="12.158258"
         x="-56.802292"
         y="159.68687"
         transform="scale(-1,1)" /><rect
         style="font-variation-settings:normal;opacity:1;vector-effect:none;fill:#000000;fill-opacity:1;stroke-width:0.473449;stroke-linecap:butt;stroke-linejoin:miter;stroke-miterlimit:4;stroke-dasharray:none;stroke-dashoffset:0;stroke-opacity:1;-inkscape-stroke:none"
         id="rect29"
         width="3.6215184"
         height="5.2195077"
         x="-53.180775"
         y="166.62563"
         transform="scale(-1,1)" /><rect
         style="font-variation-settings:normal;opacity:1;vector-effect:none;fill:#000000;fill-opacity:1;stroke-width:0.473451;stroke-linecap:butt;stroke-linejoin:miter;stroke-miterlimit:4;stroke-dasharray:none;stroke-dashoffset:0;stroke-opacity:1;-inkscape-stroke:none"
         id="rect30"
         width="3.6215184"
         height="1.9668912"
         x="-49.559254"
         y="169.87825"
         transform="scale(-1,1)" /></g><text
       xml:space="preserve"
       style="font-style:normal;font-variant:normal;font-weight:600;font-stretch:semi-condensed;font-size:23.3689px;line-height:1;font-family:Bahnschrift;-inkscape-font-specification:'Bahnschrift Semi-Bold Semi-Condensed';text-align:center;text-decoration-color:#000000;writing-mode:lr-tb;direction:ltr;text-anchor:middle;fill:#000000;stroke-width:0.399997;-inkscape-stroke:none"
       x="48.454021"
       y="203.02882"
       id="text30"><tspan
         sodipodi:role="line"
         id="tspan30"
         style="font-style:normal;font-variant:normal;font-weight:600;font-stretch:semi-condensed;font-family:Bahnschrift;-inkscape-font-specification:'Bahnschrift Semi-Bold Semi-Condensed';text-align:center;text-anchor:middle;fill:#000000;stroke-width:0.399997"
         x="48.454021"
         y="203.02882">1:33</tspan></text><path
       style="fill:#000000"
       d="m 20.827397,132.89651 c -0.564135,-0.0738 -1.03124,-0.38463 -1.260569,-0.83888 -0.196422,-0.38907 -0.206845,-0.51391 -0.207526,-2.48553 l -6.22e-4,-1.80041 h 0.964996 0.964997 l 0.01385,1.54961 c 0.0094,1.05437 0.02729,1.59033 0.0559,1.67704 0.02313,0.0701 0.0908,0.17414 0.150386,0.23123 0.09127,0.0874 0.144362,0.10608 0.337058,0.11835 0.125798,0.008 0.286489,-0.005 0.357092,-0.0278 0.165994,-0.0548 0.362178,-0.28553 0.412429,-0.4851 0.02562,-0.10175 0.03955,-0.66896 0.03955,-1.6102 v -1.45313 h 0.967383 0.967383 v 2.50803 2.50803 H 23.65815 22.726596 v -0.30301 -0.30301 l -0.158152,0.16865 c -0.392561,0.41863 -1.076238,0.63308 -1.741056,0.54613 z m 10.175706,0.0115 c -1.37334,-0.12733 -2.264411,-0.85968 -2.493273,-2.04918 -0.101121,-0.52556 -0.04297,-1.15876 0.150026,-1.63374 0.292567,-0.72001 0.956352,-1.29925 1.734154,-1.51327 0.348034,-0.0958 1.272165,-0.085 1.666049,0.0194 1.130847,0.2997 1.731339,1.06122 1.878666,2.38246 0.021,0.18834 0.03818,0.39951 0.03818,0.46926 v 0.12681 h -1.841962 -1.841961 l 0.04429,0.1881 c 0.07924,0.33656 0.228291,0.53834 0.50413,0.68247 0.10868,0.0568 0.209394,0.0752 0.412503,0.0752 0.326992,1.3e-4 0.50425,-0.0561 0.68151,-0.21626 l 0.134708,-0.1217 0.898939,0.01 0.89894,0.01 -0.132857,0.26871 c -0.267622,0.5413 -0.85633,0.99961 -1.515884,1.18011 -0.248134,0.0679 -0.855563,0.15088 -1.019099,0.13921 -0.03941,-0.003 -0.128089,-0.0103 -0.19706,-0.0167 z m 1.096339,-3.34859 c -0.0322,-0.20134 -0.09906,-0.31918 -0.267416,-0.47128 -0.427857,-0.38654 -1.175647,-0.22287 -1.424626,0.31182 -0.152502,0.3275 -0.20825,0.30654 0.815256,0.30654 h 0.900305 z m -26.9910656,3.29773 c -0.4040689,-0.0526 -1.0649652,-0.25622 -1.0416125,-0.32098 0.013558,-0.0376 4.7977333,-5.30187 4.8183451,-5.30187 0.00827,0 0.070031,0.11689 0.1372477,0.25976 0.4676372,0.99396 0.4683656,2.21108 0.00192,3.20266 -0.7015989,1.49146 -2.296055,2.37114 -3.9158968,2.16043 z m 41.4345106,-0.018 c -0.709989,-0.17201 -1.124393,-0.64812 -1.163668,-1.33694 -0.04878,-0.85557 0.40551,-1.36767 1.422675,-1.60371 0.129077,-0.03 0.507109,-0.0935 0.840072,-0.14128 0.711252,-0.10199 0.853343,-0.1398 0.97221,-0.25866 0.07018,-0.0702 0.08845,-0.12503 0.08845,-0.26547 0,-0.14673 -0.01742,-0.19444 -0.101825,-0.27884 -0.128984,-0.12899 -0.360962,-0.19236 -0.61924,-0.16917 -0.31108,0.0279 -0.459696,0.11482 -0.546073,0.31927 l -0.07276,0.17221 H 46.47501 45.587292 l 0.0192,-0.11644 c 0.07383,-0.44776 0.161426,-0.63961 0.413933,-0.9066 0.324086,-0.34267 0.837076,-0.52549 1.673628,-0.59643 0.356138,-0.0302 0.603266,-0.0302 0.967382,1e-5 0.90135,0.0748 1.403632,0.28182 1.658515,0.68365 0.218008,0.34369 0.220317,0.36488 0.244469,2.24357 0.02379,1.85089 0.0091,1.69188 0.197622,2.14078 0.0247,0.0588 -0.03367,0.0627 -0.942772,0.0627 -0.623613,0 -0.977199,-0.0131 -0.991815,-0.0368 -0.01249,-0.0202 -0.03169,-0.12371 -0.04266,-0.22999 l -0.01994,-0.19325 -0.180906,0.143 c -0.242811,0.19193 -0.408538,0.27232 -0.731936,0.35503 -0.326698,0.0836 -0.991305,0.0903 -1.309128,0.0133 z m 1.578547,-1.09204 c 0.100502,-0.0215 0.232605,-0.0852 0.310937,-0.14973 0.202736,-0.16712 0.268532,-0.34332 0.269469,-0.72165 7.1e-4,-0.28677 -0.0053,-0.31566 -0.06191,-0.29691 -0.03449,0.0114 -0.207808,0.0629 -0.385161,0.11438 -0.177354,0.0515 -0.408518,0.11923 -0.513698,0.15053 -0.269095,0.0801 -0.399942,0.21961 -0.399942,0.42645 0,0.0885 0.01609,0.1909 0.03576,0.22764 0.07046,0.13166 0.31936,0.26542 0.526787,0.2831 0.02366,0.002 0.121657,-0.0132 0.217766,-0.0338 z m 4.880673,1.09691 c -0.711999,-0.19812 -1.252752,-0.82608 -1.496362,-1.73768 -0.08008,-0.29966 -0.09144,-0.41288 -0.09015,-0.89823 0.0013,-0.4752 0.01446,-0.60471 0.09143,-0.89743 0.125539,-0.47741 0.288456,-0.79392 0.553836,-1.07598 0.711836,-0.75656 1.991002,-0.80454 2.687917,-0.10083 l 0.188102,0.18993 v -1.2255 -1.22549 h 0.949469 0.949468 v 3.4581 3.4581 l -0.922597,-0.01 -0.922596,-0.01 -0.01045,-0.25604 -0.01045,-0.25603 -0.181661,0.19208 c -0.306389,0.32396 -0.651776,0.44617 -1.24851,0.44176 -0.206912,-0.002 -0.448758,-0.023 -0.537434,-0.0476 z m 1.600718,-1.47358 c 0.077,-0.061 0.1837,-0.20133 0.243669,-0.32052 0.09898,-0.19675 0.107675,-0.24603 0.120448,-0.68313 0.0203,-0.69483 -0.103392,-1.0473 -0.433775,-1.23603 -0.184652,-0.10548 -0.54998,-0.11734 -0.728547,-0.0237 -0.165129,0.0866 -0.320342,0.28193 -0.395472,0.4976 -0.09117,0.26173 -0.09146,1.11486 -4.47e-4,1.35335 0.150003,0.39308 0.384176,0.54865 0.800005,0.53148 0.223618,-0.009 0.274985,-0.0248 0.394119,-0.1191 z m 4.203579,1.46723 c -0.494917,-0.13287 -0.850785,-0.40653 -1.032299,-0.79383 -0.08779,-0.18731 -0.09631,-0.24362 -0.09631,-0.63604 0,-0.41427 0.0044,-0.43956 0.117761,-0.6699 0.273618,-0.5562 0.76956,-0.7864 2.103637,-0.97643 0.71398,-0.1017 0.9138,-0.15954 1.020741,-0.2955 0.141556,-0.17996 0.06308,-0.49491 -0.150875,-0.60555 -0.148222,-0.0767 -0.507345,-0.1043 -0.695001,-0.0535 -0.204573,0.0554 -0.32691,0.16196 -0.376733,0.32826 l -0.04236,0.14139 h -0.893416 -0.893415 l 0.02552,-0.1881 c 0.08379,-0.61754 0.47534,-1.05474 1.12977,-1.26148 0.936141,-0.29572 2.424209,-0.2441 3.119483,0.10822 0.198524,0.1006 0.42923,0.31537 0.513199,0.47775 0.159021,0.30751 0.171509,0.44982 0.19527,2.22511 l 0.02278,1.70188 0.09379,0.22393 0.09379,0.22393 h -0.979509 -0.979509 l -0.02195,-0.13436 c -0.01207,-0.0739 -0.03025,-0.1789 -0.0404,-0.23334 l -0.01844,-0.099 -0.1628,0.1433 c -0.204064,0.17963 -0.484433,0.31366 -0.792848,0.37903 -0.31133,0.066 -1.004392,0.0628 -1.259858,-0.006 z m 1.79749,-1.16365 c 0.270827,-0.13816 0.388079,-0.39263 0.388079,-0.84223 v -0.29719 l -0.152274,0.0672 c -0.08375,0.037 -0.326501,0.11084 -0.539446,0.16414 -0.46461,0.11629 -0.597049,0.1961 -0.669221,0.40331 -0.04942,0.14188 -0.04815,0.16186 0.01791,0.28256 0.172627,0.31535 0.584483,0.41117 0.954948,0.22217 z m -48.394506,1.069 c -0.0094,-0.0246 -0.01291,-1.57648 -0.0078,-3.44855 l 0.0092,-3.40375 h 2.185569 c 2.02634,0 2.20384,0.005 2.436371,0.0674 0.58625,0.15746 1.00238,0.46589 1.200869,0.89005 0.361516,0.77254 0.154851,1.60161 -0.502715,2.01671 l -0.146266,0.0923 0.246624,0.12338 c 0.271666,0.13591 0.594556,0.44344 0.716447,0.68237 0.194905,0.38204 0.260434,0.98261 0.154127,1.41257 -0.199705,0.80769 -0.881706,1.3894 -1.830316,1.56115 -0.376198,0.0681 -4.436371,0.0739 -4.462117,0.006 z m 3.870338,-1.71084 c 0.235308,-0.11805 0.322867,-0.26898 0.32218,-0.55535 -6.57e-4,-0.27415 -0.08526,-0.42197 -0.302882,-0.52924 -0.150014,-0.0739 -0.221059,-0.0808 -0.959209,-0.0923 l -0.797195,-0.0124 v 0.65189 0.65189 l 0.779281,-0.0125 c 0.747102,-0.0119 0.786653,-0.0162 0.957825,-0.10204 z m -0.287447,-2.51141 c 0.22893,-0.0576 0.349962,-0.20102 0.3696,-0.43783 0.02213,-0.26687 -0.04895,-0.39328 -0.268892,-0.47813 -0.144478,-0.0557 -0.276366,-0.066 -0.851701,-0.066 h -0.680751 l -0.0099,0.51057 -0.0099,0.51056 h 0.647954 c 0.356375,0 0.718027,-0.0176 0.803672,-0.0392 z m 9.908133,1.759 v -2.50803 h 0.967383 0.967383 v 2.50803 2.50803 h -0.967383 -0.967383 z m 9.100565,0 v -2.50803 h 0.931554 0.931554 v 0.30168 0.30168 l 0.213124,-0.21312 c 0.67557,-0.67557 1.976435,-0.71525 2.654528,-0.081 0.226474,0.21184 0.34926,0.41652 0.43469,0.72461 0.0597,0.21531 0.06558,0.40436 0.06558,2.10935 v 1.87284 H 39.066338 38.10067 L 38.09,131.18443 c -0.01017,-1.52846 -0.01402,-1.60903 -0.08233,-1.725 -0.0988,-0.16773 -0.222145,-0.25027 -0.412404,-0.27595 -0.333159,-0.045 -0.644246,0.12555 -0.775202,0.42493 -0.06059,0.13852 -0.06735,0.28442 -0.07717,1.6656 l -0.01076,1.51377 H 35.76656 34.800977 Z m 6.341732,0 v -2.50803 h 0.913639 0.91364 v 0.40278 0.40278 l 0.145236,-0.22228 c 0.397793,-0.60881 0.929399,-0.81222 1.744743,-0.66761 l 0.116445,0.0207 v 0.8524 0.8524 l -0.170188,-0.0547 c -0.102611,-0.033 -0.319569,-0.0565 -0.546392,-0.0592 -0.344835,-0.004 -0.393322,0.004 -0.58149,0.0963 -0.362909,0.17821 -0.534278,0.47945 -0.600239,1.05513 -0.01973,0.17218 -0.036,0.76853 -0.03616,1.32522 l -2.94e-4,1.01217 H 42.09218 41.142712 Z m 22.858899,5.9e-4 v -2.50862 h 0.912466 0.912466 l 0.01013,0.40308 0.01013,0.40307 0.09492,-0.16123 c 0.379819,-0.64517 0.944571,-0.87692 1.777148,-0.72925 l 0.116444,0.0207 v 0.8524 0.8524 l -0.15536,-0.0468 c -0.633448,-0.19064 -1.279756,-0.039 -1.510297,0.35441 -0.210062,0.35845 -0.211374,0.3684 -0.232037,1.75952 l -0.01916,1.28985 -0.958425,0.01 -0.958426,0.01 z m -61.5583322,2.27887 c -0.2009521,-0.0718 -0.3448859,-0.19073 -0.4525637,-0.37391 -0.080336,-0.13666 -0.098668,-0.21111 -0.098668,-0.40073 0,-0.28135 0.104846,-0.48763 0.3456126,-0.67997 0.085796,-0.0685 1.719929,-1.42991 3.6314059,-3.02527 4.1857594,-3.49353 3.8822061,-3.24228 3.812246,-3.15545 -0.1626461,0.20186 -6.2592653,7.26148 -6.3934316,7.40332 -0.2381302,0.25175 -0.5497926,0.33736 -0.8446012,0.23201 z m -0.4912386,-2.3959 c -0.1063017,-0.36406 -0.1489806,-0.66999 -0.1492949,-1.07018 -0.00136,-1.72733 1.1647676,-3.22675 2.858675,-3.67574 0.2952595,-0.0783 0.428871,-0.0927 0.8851844,-0.0955 0.551012,-0.003 0.7699595,0.0265 1.2002714,0.16431 0.2797542,0.0896 0.7581987,0.31685 0.7443728,0.35361 -0.015994,0.0425 -5.3975701,4.58329 -5.4319801,4.58329 -0.01726,0 -0.065513,-0.11689 -0.1072286,-0.25976 z m 67.0722318,-2.42911 c -0.421079,-0.085 -0.721608,-0.46476 -0.721608,-0.91195 0,-0.95065 1.227353,-1.28904 1.729503,-0.47683 0.197319,0.31916 0.161509,0.77804 -0.08395,1.07583 -0.198398,0.24069 -0.602945,0.37771 -0.92394,0.31295 z m 0.487198,-0.19727 c 0.28734,-0.12003 0.47201,-0.39964 0.47201,-0.71468 0,-0.70227 -0.828529,-1.02722 -1.312945,-0.51493 -0.145642,0.15402 -0.190299,0.27486 -0.190299,0.51493 0,0.24008 0.04466,0.36092 0.190299,0.51494 0.22446,0.23738 0.560035,0.31708 0.840935,0.19974 z m -0.708773,-0.71468 v -0.51952 h 0.306902 c 0.409713,0 0.549491,0.078 0.551854,0.30795 0.0011,0.11076 -0.08881,0.22949 -0.173867,0.22949 -0.02418,0 -0.0012,0.0368 0.05113,0.0818 0.06968,0.0599 0.100187,0.12697 0.114144,0.2508 l 0.01905,0.169 h -0.126228 c -0.131767,0 -0.169723,-0.0431 -0.169723,-0.19282 0,-0.10732 -0.06547,-0.16547 -0.186311,-0.16547 -0.0965,0 -0.100321,0.007 -0.100321,0.17915 v 0.17914 H 68.94601 68.802694 Z m 0.567709,-0.15922 c 0.01426,-0.10102 -0.07349,-0.18115 -0.198353,-0.18115 -0.07283,0 -0.08272,0.0174 -0.08272,0.14548 v 0.14548 l 0.134358,-0.0111 c 0.111413,-0.009 0.13647,-0.0261 0.146719,-0.0987 z m -43.65408,0.52521 c -0.0097,-0.0253 -0.01324,-0.32763 -0.0078,-0.67179 l 0.0098,-0.62575 0.958426,-0.01 0.958426,-0.01 v 0.68134 0.68134 h -0.950593 c -0.741282,0 -0.954484,-0.0101 -0.968262,-0.046 z"
       id="path57" /><path
       style="fill:#000000;stroke-width:0.999978"
       d="m 7.044403,203.50314 c -0.437524,-0.1176 -0.859054,-0.48048 -1.05591,-0.90886 -0.09177,-0.19975 -0.107018,-0.2898 -0.108932,-0.64325 -0.0021,-0.39512 0.0037,-0.42319 0.152071,-0.7234 0.17558,-0.35548 0.402013,-0.58058 0.761057,-0.75695 0.20872,-0.10246 0.271395,-0.11292 0.679848,-0.11292 0.411987,0 0.469972,0.01 0.687628,0.11676 0.309546,0.15192 0.634496,0.4755 0.786366,0.78309 0.0667,0.13501 0.135012,0.24077 0.151882,0.23518 0.01694,-0.01 0.910511,-0.01 1.985852,-0.01 h 1.955169 l 0.08509,-0.17395 c 0.280713,-0.57334 0.946901,-0.92207 1.548891,-0.81082 0.124854,0.0227 0.309939,0.0788 0.411317,0.12353 0.226422,0.10009 0.582721,0.45751 0.687211,0.6892 l 0.07761,0.17204 h 1.99681 1.996822 l 0.111168,-0.2352 c 0.142673,-0.30191 0.479453,-0.63818 0.780113,-0.77906 0.211571,-0.0993 0.282384,-0.11058 0.685855,-0.11058 0.415068,0 0.468917,0.01 0.694833,0.12026 0.325976,0.16007 0.608766,0.45025 0.769762,0.79012 0.120083,0.25349 0.130546,0.30876 0.129766,0.68486 -0.0018,0.37512 -0.0115,0.43107 -0.130706,0.676 -0.378944,0.77924 -1.255851,1.12606 -2.068379,0.81784 -0.325142,-0.12322 -0.684468,-0.46157 -0.852202,-0.80228 l -0.129043,-0.26218 h -1.99163 -1.991623 l -0.09299,0.19847 c -0.304342,0.64975 -1.082148,0.97524 -1.777746,0.74365 -0.339924,-0.11301 -0.695726,-0.42362 -0.841108,-0.73404 l -0.0975,-0.20808 H 11.050132 9.058511 l -0.128231,0.25557 c -0.365156,0.72806 -1.115404,1.07211 -1.885875,0.86517 z m 0.862011,-0.64434 c 0.36154,-0.17449 0.565889,-0.5049 0.56733,-0.91745 0.0021,-0.76005 -0.780188,-1.24048 -1.458829,-0.89516 -0.438586,0.22311 -0.642545,0.71569 -0.503525,1.21619 0.05826,0.2097 0.310152,0.48361 0.549846,0.59789 0.24391,0.11611 0.602718,0.11565 0.845178,-0.003 z m -0.628556,-0.32987 c -0.209762,-0.0759 -0.275848,-0.13735 -0.367286,-0.34348 -0.241791,-0.54546 0.349535,-1.07153 0.873388,-0.77715 0.41065,0.23085 0.411804,0.86287 0.0019,1.07232 -0.178567,0.0911 -0.345014,0.10708 -0.508057,0.0487 z m 14.551773,0.32991 c 0.22312,-0.10382 0.447999,-0.33182 0.536547,-0.54369 0.03096,-0.074 0.05587,-0.24102 0.05538,-0.37107 -0.0019,-0.57821 -0.424514,-1.00188 -1.001226,-1.0046 -0.576314,-0.006 -1.002105,0.41915 -1.002105,0.99293 0,0.42905 0.198114,0.73788 0.593087,0.92505 0.268103,0.12697 0.547785,0.12742 0.818351,0.004 z m -0.606311,-0.3307 c -0.270924,-0.0974 -0.436995,-0.31848 -0.436995,-0.58135 0,-0.20257 0.157718,-0.4595 0.338726,-0.55188 0.540953,-0.27593 1.116211,0.2878 0.839763,0.82292 -0.148593,0.28774 -0.451641,0.41464 -0.741494,0.31031 z m -6.463936,-0.14093 c 0.417605,-0.31001 0.194561,-0.9864 -0.325325,-0.9864 -0.162265,0 -0.393619,0.14236 -0.467052,0.28746 -0.111442,0.22036 -0.04378,0.52798 0.150321,0.68337 0.171768,0.13772 0.468081,0.14483 0.642056,0.0155 z m -7.382985,-2.77803 c -0.141885,-0.0215 -1.01588,-0.88952 -1.491661,-1.48059 -0.9676181,-1.20217 -1.5341634,-2.30588 -1.7079128,-3.32736 -0.060609,-0.35639 -0.027632,-1.15407 0.061113,-1.4787 0.1031174,-0.37726 0.4068433,-0.95046 0.6736794,-1.27167 0.4222289,-0.50814 1.0288564,-0.8956 1.7019594,-1.0874 0.271146,-0.0771 0.421849,-0.0927 0.879404,-0.0904 0.477829,0.006 0.601763,0.0177 0.920316,0.11394 0.951137,0.28689 1.663656,0.89909 2.087509,1.79379 0.574698,1.21297 0.358518,2.65794 -0.634819,4.2434 -0.449087,0.71663 -0.891979,1.26754 -1.589503,1.9771 -0.573259,0.58314 -0.664042,0.64444 -0.900085,0.60784 z m 0.498514,-3.91426 c 0.454942,-0.11863 0.879212,-0.47651 1.085038,-0.9154 0.09501,-0.20276 0.10778,-0.28083 0.10778,-0.65949 0,-0.38029 -0.01258,-0.4561 -0.109612,-0.66323 -0.306171,-0.6533 -1.058332,-1.05979 -1.730975,-0.93532 -0.875835,0.16182 -1.432048,0.88049 -1.358703,1.75537 0.08237,0.98244 1.050879,1.66696 2.006472,1.41807 z m 13.443143,3.9137 c -0.130166,-0.0177 -1.227506,-1.11791 -1.599516,-1.60271 -0.867252,-1.13033 -1.34564,-2.05275 -1.557799,-3.00358 -0.437902,-1.96246 0.817018,-3.81511 2.789198,-4.11766 1.594608,-0.24454 3.178006,0.769 3.680649,2.35608 0.115998,0.36626 0.155907,1.11477 0.08342,1.56451 -0.212482,1.31805 -1.264543,3.03374 -2.693377,4.39237 -0.406285,0.38637 -0.497821,0.43981 -0.702559,0.41099 z m 0.417235,-3.8977 c 0.511528,-0.10704 1.007023,-0.51317 1.179895,-0.96717 0.385153,-1.01155 -0.199585,-2.0368 -1.26908,-2.22516 -0.666769,-0.11734 -1.406743,0.28821 -1.711381,0.93821 -0.09712,0.2072 -0.109611,0.28282 -0.109611,0.66395 0,0.40318 0.0085,0.44706 0.133908,0.70242 0.146635,0.29793 0.49653,0.65533 0.745495,0.76124 0.390835,0.16625 0.67444,0.20094 1.030774,0.12651 z m -7.697888,0.50935 c -0.95724,-0.0911 -1.906908,-0.44308 -2.631198,-0.97481 l -0.26238,-0.1926 0.03676,-0.16325 c 0.02007,-0.0898 0.03913,-0.36402 0.04195,-0.60959 0.0019,-0.24533 0.01775,-0.44624 0.03315,-0.44624 0.01538,0 0.07388,0.0506 0.130276,0.11253 0.504127,0.55326 1.24005,0.99646 1.997057,1.2031 0.305274,0.0834 0.437462,0.0947 1.08392,0.0928 0.682145,-0.004 0.763294,-0.01 1.104368,-0.11375 0.706417,-0.21456 1.321499,-0.56845 1.814592,-1.04376 0.143168,-0.13801 0.263503,-0.25094 0.267412,-0.25094 0.0039,0 0.01037,0.20714 0.01459,0.46023 0.0043,0.25307 0.02513,0.52024 0.04693,0.59382 0.03381,0.11449 0.02668,0.146 -0.04989,0.21788 -0.245538,0.23069 -0.974842,0.64537 -1.429441,0.81266 -0.658632,0.24232 -1.545479,0.36417 -2.198053,0.30191 z m 0.10303,-4.33336 c -0.492142,-0.18022 -0.708353,-0.76195 -0.460632,-1.23938 0.05718,-0.1102 0.09025,-0.21611 0.0734,-0.23518 -0.0831,-0.0946 -1.147426,-2.40906 -1.147426,-2.49521 0,-0.23281 0.354351,-0.3889 0.55305,-0.24365 0.04281,0.0315 0.337671,0.60661 0.655222,1.2783 l 0.577349,1.22114 0.160429,0.0227 c 0.23778,0.0333 0.491731,0.18211 0.608972,0.35467 0.05704,0.0839 0.103651,0.17586 0.103651,0.20438 0,0.0293 0.02305,0.0525 0.0512,0.0529 0.02823,0.002 0.399988,0.0364 0.826371,0.0769 0.756396,0.0735 0.777624,0.0783 0.873369,0.18952 0.191533,0.22266 0.03369,0.54969 -0.26544,0.54969 -0.0779,0 -0.4494,-0.0291 -0.82557,-0.0641 l -0.683955,-0.0641 -0.182375,0.1823 c -0.264249,0.26434 -0.573055,0.33442 -0.91757,0.20829 z m 0.493611,-0.69112 c 0.1349,-0.20577 -0.06425,-0.45676 -0.274548,-0.3459 -0.118062,0.0622 -0.157037,0.11651 -0.157855,0.21973 -0.002,0.21896 0.311695,0.31045 0.432403,0.12617 z M 10.00303,191.429 c -0.137977,-0.12847 -0.355862,-0.29786 -0.484166,-0.37653 l -0.233277,-0.14327 0.02508,-0.34768 c 0.01382,-0.1912 0.07096,-0.5292 0.127038,-0.75114 0.605429,-2.395 2.790749,-4.01868 5.249584,-3.90037 1.324801,0.064 2.478047,0.57651 3.420794,1.52093 0.766451,0.76794 1.233982,1.6849 1.431592,2.80779 0.0333,0.18881 0.05938,0.41697 0.05823,0.50692 -0.002,0.15331 -0.01694,0.17315 -0.235134,0.31417 -0.128103,0.0828 -0.3371,0.2438 -0.464439,0.35789 -0.127329,0.11408 -0.237768,0.20727 -0.245415,0.20721 -0.0075,-4e-5 -0.01578,-0.27146 -0.01811,-0.6032 -0.0031,-0.50968 -0.02054,-0.66503 -0.109661,-1.0003 -0.750932,-2.82706 -3.988371,-4.06631 -6.417889,-2.45681 -1.217753,0.80678 -1.9354,2.22932 -1.864757,3.69619 0.0107,0.22278 0.0177,0.4043 0.01544,0.40339 -0.0019,-0.002 -0.1169,-0.10688 -0.254883,-0.23519 z"
       id="path58" /><path
       style="fill:#000000;stroke-width:0.999989"
       d="m 8.216864,115.50894 c -1.4854296,-0.19126 -2.7289864,-1.25808 -3.2142893,-2.75764 -0.1427553,-0.4411 -0.2060858,-0.85332 -0.2060858,-1.34148 0,-1.15825 0.4313813,-2.22076 1.2210821,-3.00764 0.4529638,-0.45135 0.9808983,-0.77488 1.5575466,-0.95455 l 0.1581764,-0.0499 0.011988,-0.21076 c 0.059604,-1.04417 0.438952,-2.049 1.0717896,-2.8392 0.154701,-0.19315 0.500417,-0.54077 0.694251,-0.69804 0.7141554,-0.57944 1.6391574,-0.95966 2.5524264,-1.04916 0.329036,-0.0323 0.897425,-0.0152 1.182502,0.0354 0.438636,0.078 0.882437,0.22144 1.208214,0.39093 0.247446,0.12873 0.356378,0.31092 0.342606,0.57299 -0.0084,0.15866 -0.0578,0.27104 -0.168198,0.38203 -0.11652,0.11719 -0.249006,0.17162 -0.417203,0.1714 -0.121948,-1.4e-4 -0.15707,-0.01 -0.303416,-0.0751 -0.740977,-0.33673 -1.501648,-0.39913 -2.301852,-0.18884 -0.400258,0.10517 -0.812277,0.29851 -1.164495,0.54637 -0.229081,0.16121 -0.6703494,0.6024 -0.8320534,0.8319 -0.133954,0.19012 -0.326813,0.54991 -0.41758,0.77903 -0.119861,0.30258 -0.223257,0.74985 -0.250258,1.08257 l -0.01295,0.15908 0.521938,0.006 0.521929,0.006 0.09753,0.0537 c 0.110802,0.0612 0.203327,0.15619 0.2648,0.27156 0.03543,0.0663 0.04209,0.10677 0.04209,0.25368 0,0.14685 -0.0067,0.18729 -0.04209,0.25362 -0.06142,0.11534 -0.153998,0.21013 -0.2648,0.27156 l -0.09753,0.0537 -0.79992,0.0108 c -0.855989,0.0116 -0.9571193,0.0215 -1.287239,0.12753 -0.4205637,0.13507 -0.8822276,0.44952 -1.1812596,0.80452 -0.6876688,0.81661 -0.9026551,1.95892 -0.5654635,3.00463 0.030461,0.0944 0.1090072,0.27923 0.1745865,0.41074 0.390369,0.78262 1.0305054,1.29273 1.8627056,1.48417 l 0.17835,0.0405 5.5719064,0.007 c 3.729637,0.005 5.649256,-3.2e-4 5.805873,-0.0133 0.286195,-0.0234 0.462215,-0.0583 0.709053,-0.14008 0.747129,-0.24813 1.395798,-0.83061 1.72942,-1.55312 0.209298,-0.45318 0.303644,-0.98403 0.261379,-1.47063 -0.03654,-0.42144 -0.117785,-0.72838 -0.285799,-1.0802 -0.357338,-0.74842 -1.016188,-1.27771 -1.862198,-1.49576 -0.256156,-0.0659 -0.26953,-0.0666 -0.254704,-0.0127 0.0335,0.12248 0.06948,0.53846 0.06304,0.72946 -0.0056,0.17628 -0.01432,0.2266 -0.04862,0.29195 -0.06004,0.11455 -0.152801,0.20991 -0.264112,0.27156 -0.08872,0.0495 -0.113322,0.0537 -0.272224,0.0537 -0.158904,0 -0.183514,-0.006 -0.272225,-0.0537 -0.111852,-0.0617 -0.205115,-0.15814 -0.262554,-0.27072 -0.03191,-0.0624 -0.0448,-0.14002 -0.06456,-0.38497 -0.02862,-0.35537 -0.05902,-0.51818 -0.14897,-0.79706 -0.220651,-0.68422 -0.752364,-1.3175 -1.391975,-1.65769 -0.440554,-0.23443 -0.886001,-0.34483 -1.390415,-0.34483 -0.279185,0 -0.462024,0.021 -0.707983,0.0827 -0.966403,0.23944 -1.757284,0.9687 -2.068991,1.90784 -0.09463,0.28509 -0.124925,0.44404 -0.154386,0.80969 -0.01966,0.24484 -0.03276,0.32254 -0.06455,0.38497 -0.05744,0.11251 -0.150692,0.20873 -0.262556,0.27062 -0.08872,0.0498 -0.113328,0.0537 -0.272226,0.0537 -0.158901,0 -0.183512,-0.006 -0.272228,-0.0537 -0.111356,-0.062 -0.204109,-0.15708 -0.264034,-0.27155 -0.07726,-0.14751 -0.067,-0.60014 0.02404,-1.06277 0.207395,-1.05403 0.847885,-2.01555 1.737238,-2.60795 0.581878,-0.38763 1.186327,-0.60773 1.88233,-0.68546 0.242781,-0.0273 0.849633,-0.0117 1.078325,0.0279 1.083702,0.18548 2.014179,0.75487 2.668731,1.63295 0.05496,0.0736 0.132734,0.18909 0.172777,0.25619 l 0.0728,0.12199 0.160059,0.0127 c 0.379433,0.0291 0.786261,0.10735 1.116292,0.21322 1.34575,0.43173 2.332514,1.47543 2.676268,2.83074 0.0838,0.33046 0.11221,0.54765 0.122864,0.93988 0.01073,0.39581 -0.0056,0.60734 -0.07905,0.96996 -0.170623,0.85314 -0.668163,1.69979 -1.337678,2.27621 -0.621354,0.53495 -1.359558,0.86543 -2.170796,0.97176 -0.1905,0.0253 -0.887421,0.0282 -5.956807,0.0265 -3.157583,-8.7e-4 -5.7948479,-0.01 -5.8605848,-0.0175 z m 13.311558,-8.53683 c -0.118336,-0.0441 -0.187242,-0.0982 -0.395453,-0.31006 -0.26497,-0.2696 -0.291856,-0.3201 -0.291917,-0.54831 -5.3e-5,-0.15896 0.005,-0.18348 0.05402,-0.27223 0.0613,-0.11079 0.156258,-0.20336 0.271552,-0.26481 0.06636,-0.0356 0.106906,-0.0417 0.253678,-0.0418 0.157905,-2e-5 0.183822,0.006 0.269652,0.0521 0.117864,0.065 0.500295,0.45002 0.56009,0.5634 0.03702,0.0707 0.04366,0.10911 0.04366,0.25743 0,0.19474 -0.02745,0.2698 -0.146825,0.40195 -0.105892,0.11721 -0.233201,0.17424 -0.40452,0.18114 -0.09283,0.004 -0.171937,-0.004 -0.213867,-0.0184 z m -2.241302,-1.16873 c -0.168512,-0.0552 -0.301642,-0.17345 -0.375721,-0.33326 -0.03712,-0.0802 -0.04688,-0.12994 -0.04688,-0.23906 0,-0.20995 0.04688,-0.29375 0.308838,-0.55229 0.326938,-0.32261 0.516388,-0.61687 0.64528,-1.00232 0.116791,-0.34922 0.151952,-0.81986 0.08799,-1.17726 -0.244541,-1.36595 -1.570678,-2.23585 -2.886601,-1.89352 -0.439662,0.11438 -0.863509,0.37639 -1.156389,0.71483 -0.146194,0.16893 -0.219345,0.27671 -0.34564,0.50932 -0.1122,0.20663 -0.177022,0.27803 -0.313016,0.34482 -0.08598,0.0422 -0.124976,0.0498 -0.257668,0.0498 -0.133714,0 -0.171368,-0.006 -0.26041,-0.0511 -0.114356,-0.0562 -0.211748,-0.15278 -0.27663,-0.27446 -0.03544,-0.0664 -0.04209,-0.10687 -0.04216,-0.25368 -7e-6,-0.16976 0.003,-0.17911 0.07964,-0.33101 0.204696,-0.40153 0.420109,-0.69392 0.731791,-0.99335 0.521537,-0.501032 1.133112,-0.806562 1.882455,-0.940452 0.216232,-0.0387 0.900302,-0.0328 1.130193,0.01 1.559012,0.28828 2.719168,1.522432 2.914512,3.100412 0.0444,0.35935 0.0117,0.91661 -0.07434,1.26014 -0.173069,0.69185 -0.484907,1.24152 -0.9807,1.72866 -0.281442,0.27648 -0.36758,0.32687 -0.571274,0.33398 -0.08108,0.003 -0.168028,-0.002 -0.193313,-0.01 z m 2.97687,-2.36247 c -0.153641,-0.0563 -0.271007,-0.1602 -0.351667,-0.31133 -0.03454,-0.0648 -0.04138,-0.10639 -0.04148,-0.25234 -4.4e-5,-0.15895 0.005,-0.18349 0.05402,-0.27222 0.0613,-0.11077 0.156208,-0.20328 0.271551,-0.26487 0.07642,-0.0408 0.09422,-0.0422 0.547908,-0.0422 h 0.468916 l 0.09311,0.0492 c 0.105445,0.0556 0.207206,0.16013 0.269231,0.27644 0.03534,0.0665 0.04209,0.10684 0.04209,0.25368 0,0.14683 -0.0064,0.18729 -0.04209,0.25368 -0.0615,0.11529 -0.154009,0.21016 -0.26481,0.27155 l -0.09753,0.054 -0.441332,0.005 c -0.330032,0.004 -0.458117,-0.002 -0.507864,-0.0199 z m -8.091208,-3.236 c -0.11835,-0.0443 -0.187253,-0.0983 -0.395466,-0.310092 -0.264964,-0.26957 -0.291844,-0.32007 -0.291918,-0.54829 -4e-5,-0.15895 0.005,-0.18349 0.05402,-0.27223 0.0613,-0.1108 0.156265,-0.20333 0.27155,-0.26481 0.06646,-0.0354 0.106802,-0.0421 0.253683,-0.0421 0.234933,5e-5 0.29536,0.0333 0.572341,0.31544 0.274655,0.27972 0.301042,0.32862 0.301042,0.5579 0,0.19472 -0.02742,0.26976 -0.146818,0.401942 -0.105898,0.1172 -0.23321,0.1742 -0.404521,0.18113 -0.09284,0.004 -0.171945,-0.004 -0.213868,-0.0189 z m 6.767194,0 c -0.154859,-0.0578 -0.271184,-0.16101 -0.351668,-0.311812 -0.03464,-0.0648 -0.04138,-0.10639 -0.04148,-0.25234 -4.4e-5,-0.15792 0.0056,-0.18383 0.05258,-0.26967 0.06532,-0.11785 0.450023,-0.50028 0.563407,-0.56008 0.07022,-0.0371 0.10906,-0.0437 0.257451,-0.0436 0.153696,4e-5 0.185885,0.006 0.267805,0.0491 0.105411,0.0555 0.207172,0.15999 0.269232,0.27635 0.03542,0.0665 0.04209,0.10685 0.04209,0.25368 0,0.22905 -0.02666,0.27865 -0.298017,0.55421 -0.262939,0.267022 -0.344027,0.314872 -0.547547,0.323082 -0.09284,0.004 -0.171944,-0.004 -0.213866,-0.0189 z m -3.383599,-1.471132 c -0.154826,-0.0579 -0.271096,-0.160953 -0.351719,-0.311813 -0.03987,-0.0747 -0.04148,-0.0951 -0.04148,-0.54657 0,-0.4537 0.002,-0.4715 0.04213,-0.54791 0.0616,-0.11534 0.154098,-0.21018 0.264865,-0.27155 0.08872,-0.0492 0.113322,-0.054 0.272225,-0.054 0.158903,0 0.183515,0.006 0.272224,0.054 0.110767,0.0613 0.203278,0.15621 0.264865,0.27155 0.04084,0.0764 0.04215,0.0942 0.04215,0.54791 0,0.45369 -0.002,0.47148 -0.04215,0.54791 -0.0619,0.11587 -0.154465,0.21051 -0.264637,0.270473 -0.07964,0.0433 -0.124086,0.0541 -0.244639,0.0589 -0.09284,0.004 -0.171941,-0.004 -0.213865,-0.0189 z"
       id="path59" /><g
       id="g68"
       transform="matrix(0.61432887,0,0,0.61432887,-56.827576,-1.773684)"><rect
         style="font-variation-settings:normal;opacity:1;fill:#ffffff;fill-opacity:1;stroke:#000000;stroke-width:1.5;stroke-linecap:butt;stroke-linejoin:miter;stroke-miterlimit:4;stroke-dasharray:none;stroke-dashoffset:0;stroke-opacity:1"
         id="rect59"
         width="63.583374"
         height="46.541367"
         x="118.89044"
         y="98.060196" /><rect
         style="font-variation-settings:normal;opacity:1;fill:#000000;fill-opacity:1;stroke:#000000;stroke-width:1.5;stroke-linecap:butt;stroke-linejoin:miter;stroke-miterlimit:4;stroke-dasharray:none;stroke-dashoffset:0;stroke-opacity:1"
         id="rect60"
         width="63.699238"
         height="10.863543"
         x="118.89044"
         y="98.060196" /><rect
         style="opacity:1;fill:#ffffff;fill-opacity:1;stroke:#000000;stroke-width:1.5;stroke-linecap:butt;stroke-linejoin:miter;stroke-miterlimit:4;stroke-dasharray:none;stroke-dashoffset:0;stroke-opacity:1"
         id="rect61"
         width="5.3899355"
         height="13.284048"
         x="122.38048"
         y="91.418167"
         rx="2.6949677"
         ry="2.6949677" /><rect
         style="opacity:1;fill:#ffffff;fill-opacity:1;stroke:#000000;stroke-width:1.5;stroke-linecap:butt;stroke-linejoin:miter;stroke-miterlimit:4;stroke-dasharray:none;stroke-dashoffset:0;stroke-opacity:1"
         id="rect62"
         width="5.3899355"
         height="13.284048"
         x="132.64632"
         y="91.418167"
         rx="2.6949677"
         ry="2.6949677" /><rect
         style="opacity:1;fill:#ffffff;fill-opacity:1;stroke:#000000;stroke-width:1.5;stroke-linecap:butt;stroke-linejoin:miter;stroke-miterlimit:4;stroke-dasharray:none;stroke-dashoffset:0;stroke-opacity:1"
         id="rect63"
         width="5.3899355"
         height="13.284048"
         x="142.91217"
         y="91.418167"
         rx="2.6949677"
         ry="2.6949677" /><rect
         style="opacity:1;fill:#ffffff;fill-opacity:1;stroke:#000000;stroke-width:1.5;stroke-linecap:butt;stroke-linejoin:miter;stroke-miterlimit:4;stroke-dasharray:none;stroke-dashoffset:0;stroke-opacity:1"
         id="rect64"
         width="5.3899355"
         height="13.284048"
         x="153.17801"
         y="91.418167"
         rx="2.6949677"
         ry="2.6949677" /><rect
         style="opacity:1;fill:#ffffff;fill-opacity:1;stroke:#000000;stroke-width:1.5;stroke-linecap:butt;stroke-linejoin:miter;stroke-miterlimit:4;stroke-dasharray:none;stroke-dashoffset:0;stroke-opacity:1"
         id="rect65"
         width="5.3899355"
         height="13.284048"
         x="163.44386"
         y="91.418167"
         rx="2.6949677"
         ry="2.6949677" /><rect
         style="opacity:1;fill:#ffffff;fill-opacity:1;stroke:#000000;stroke-width:1.5;stroke-linecap:butt;stroke-linejoin:miter;stroke-miterlimit:4;stroke-dasharray:none;stroke-dashoffset:0;stroke-opacity:1"
         id="rect66"
         width="5.3899355"
         height="13.284048"
         x="173.7097"
         y="91.418167"
         rx="2.6949677"
         ry="2.6949677" /></g><text
       xml:space="preserve"
       style="font-style:normal;font-variant:normal;font-weight:normal;font-stretch:condensed;font-size:22.6386px;line-height:1;font-family:Bahnschrift;-inkscape-font-specification:'Bahnschrift Condensed';text-align:center;text-decoration-color:#000000;writing-mode:lr-tb;direction:ltr;text-anchor:middle;fill:#000000;stroke-width:0.658273;-inkscape-stroke:none"
       x="35.88702"
       y="84.170105"
       id="text14"><tspan
         sodipodi:role="line"
         id="tspan14"
         style="font-style:normal;font-variant:normal;font-weight:normal;font-stretch:condensed;font-family:Bahnschrift;-inkscape-font-specification:'Bahnschrift Condensed';text-align:center;text-anchor:middle;fill:#000000;stroke-width:0.658273"
         x="35.88702"
         y="84.170105">25</tspan></text><text
       xml:space="preserve"
       style="font-style:normal;font-variant:normal;font-weight:300;font-stretch:condensed;font-size:8.66525px;line-height:1;font-family:Bahnschrift;-inkscape-font-specification:'Bahnschrift Light Condensed';text-align:center;text-decoration-color:#000000;writing-mode:lr-tb;direction:ltr;text-anchor:middle;fill:#000000;stroke-width:0.148313;-inkscape-stroke:none"
       x="36.332958"
       y="179.71864"
       id="text1"><tspan
         sodipodi:role="line"
         id="tspan1"
         style="font-style:normal;font-variant:normal;font-weight:300;font-stretch:condensed;font-family:Bahnschrift;-inkscape-font-specification:'Bahnschrift Light Condensed';text-align:center;text-anchor:middle;fill:#000000;stroke-width:0.148313"
         x="36.332958"
         y="179.71864">Travel time to Hengelo:</tspan></text></g><g
     inkscape:groupmode="layer"
     id="layer2"
     inkscape:label="Metrics"><path
       style="fill:#ffcdcd;stroke:#ff1919;stroke-width:0.132292;stroke-dasharray:none"
       d="M 14.166889,4.2333333 H -0.79374999"
       id="path1"
       sodipodi:nodetypes="cc" /><text
       xml:space="preserve"
       style="font-style:normal;font-variant:normal;font-weight:300;font-stretch:condensed;font-size:3.55918px;line-height:1;font-family:Bahnschrift;-inkscape-font-specification:'Bahnschrift Light Condensed';text-align:end;text-decoration-color:#000000;writing-mode:lr-tb;direction:ltr;text-anchor:end;fill:#dc0000;stroke:none;stroke-width:0.0161189;stroke-dasharray:none"
       x="-1.201265"
       y="5.3437276"
       id="text2"><tspan
         sodipodi:role="line"
         id="tspan2"
         style="text-align:end;text-anchor:end;fill:#dc0000;stroke:none;stroke-width:0.0161189"
         x="-1.2012647"
         y="5.3437276">y=16</tspan></text><path
       style="fill:#ffcdcd;stroke:#ff1919;stroke-width:0.132292;stroke-dasharray:none"
       d="M 14.166889,23.283333 H -0.79374999"
       id="path2"
       sodipodi:nodetypes="cc" /><text
       xml:space="preserve"
       style="font-style:normal;font-variant:normal;font-weight:300;font-stretch:condensed;font-size:3.55918px;line-height:1;font-family:Bahnschrift;-inkscape-font-specification:'Bahnschrift Light Condensed';text-align:end;text-decoration-color:#000000;writing-mode:lr-tb;direction:ltr;text-anchor:end;fill:#dc0000;stroke:none;stroke-width:0.0161189;stroke-dasharray:none"
       x="-1.201265"
       y="24.533739"
       id="text3"><tspan
         sodipodi:role="line"
         style="text-align:end;text-anchor:end;fill:#dc0000;stroke:none;stroke-width:0.0161189"
         x="-1.2012649"
         y="24.533739"
         id="tspan4">y=88</tspan></text><text
       xml:space="preserve"
       style="font-style:normal;font-variant:normal;font-weight:300;font-stretch:condensed;font-size:3.55918px;line-height:1;font-family:Bahnschrift;-inkscape-font-specification:'Bahnschrift Light Condensed';text-align:end;text-decoration-color:#000000;writing-mode:lr-tb;direction:ltr;text-anchor:end;fill:#dc0000;stroke:none;stroke-width:0.0161189;stroke-dasharray:none"
       x="-1.201265"
       y="10.635394"
       id="text5"><tspan
         sodipodi:role="line"
         id="tspan5"
         style="text-align:end;text-anchor:end;fill:#dc0000;stroke:none;stroke-width:0.0161189"
         x="-1.2012649"
         y="10.635394">h=36</tspan></text><text
       xml:space="preserve"
       style="font-style:normal;font-variant:normal;font-weight:300;font-stretch:condensed;font-size:3.55918px;line-height:1;font-family:Bahnschrift;-inkscape-font-specification:'Bahnschrift Light Condensed';text-align:end;text-decoration-color:#000000;writing-mode:lr-tb;direction:ltr;text-anchor:end;fill:#dc0000;stroke:none;stroke-width:0.0161189;stroke-dasharray:none"
       x="-1.201265"
       y="35.130093"
       id="text6"><tspan
         sodipodi:role="line"
         id="tspan6"
         style="text-align:end;text-anchor:end;fill:#dc0000;stroke:none;stroke-width:0.0161189"
         x="-1.2012649"
         y="35.130093">h=80</tspan></text><path
       style="fill:#ffcdcd;stroke:#ff1919;stroke-width:0.132292;stroke-dasharray:none"
       d="M 14.166889,67.997916 H -0.79374999"
       id="path6"
       sodipodi:nodetypes="cc" /><text
       xml:space="preserve"
       style="font-style:normal;font-variant:normal;font-weight:300;font-stretch:condensed;font-size:3.55918px;line-height:1;font-family:Bahnschrift;-inkscape-font-specification:'Bahnschrift Light Condensed';text-align:end;text-decoration-color:#000000;writing-mode:lr-tb;direction:ltr;text-anchor:end;fill:#dc0000;stroke:none;stroke-width:0.0161189;stroke-dasharray:none"
       x="-1.201265"
       y="69.261353"
       id="text7"><tspan
         sodipodi:role="line"
         style="text-align:end;text-anchor:end;fill:#dc0000;stroke:none;stroke-width:0.0161189"
         x="-1.2012651"
         y="69.261353"
         id="tspan7">y=257</tspan></text><path
       style="fill:#ffcdcd;stroke:#ff1919;stroke-width:0.132292;stroke-dasharray:none"
       d="M 14.166889,53.992535 H -0.79374999"
       id="path7"
       sodipodi:nodetypes="cc" /><text
       xml:space="preserve"
       style="font-style:normal;font-variant:normal;font-weight:300;font-stretch:condensed;font-size:3.55918px;line-height:1;font-family:Bahnschrift;-inkscape-font-specification:'Bahnschrift Light Condensed';text-align:end;text-decoration-color:#000000;writing-mode:lr-tb;direction:ltr;text-anchor:end;fill:#dc0000;stroke:none;stroke-width:0.0161189;stroke-dasharray:none"
       x="-1.201265"
       y="54.892757"
       id="text8"><tspan
         sodipodi:role="line"
         style="text-align:end;text-anchor:end;fill:#dc0000;stroke:none;stroke-width:0.0161189"
         x="-1.2012649"
         y="54.892757"
         id="tspan8">y=204</tspan></text><text
       xml:space="preserve"
       style="font-style:normal;font-variant:normal;font-weight:300;font-stretch:condensed;font-size:3.55918px;line-height:1;font-family:Bahnschrift;-inkscape-font-specification:'Bahnschrift Light Condensed';text-align:end;text-decoration-color:#000000;writing-mode:lr-tb;direction:ltr;text-anchor:end;fill:#dc0000;stroke:none;stroke-width:0.0161189;stroke-dasharray:none"
       x="-1.201265"
       y="77.034065"
       id="text9"><tspan
         sodipodi:role="line"
         style="text-align:end;text-anchor:end;fill:#dc0000;stroke:none;stroke-width:0.0161189"
         x="-1.201265"
         y="77.034065"
         id="tspan9">h=62</tspan></text><path
       style="fill:#ffcdcd;stroke:#ff1919;stroke-width:0.132292;stroke-dasharray:none"
       d="M 14.166889,97.102082 H -0.79374999"
       id="path9"
       sodipodi:nodetypes="cc" /><text
       xml:space="preserve"
       style="font-style:normal;font-variant:normal;font-weight:300;font-stretch:condensed;font-size:3.55918px;line-height:1;font-family:Bahnschrift;-inkscape-font-specification:'Bahnschrift Light Condensed';text-align:end;text-decoration-color:#000000;writing-mode:lr-tb;direction:ltr;text-anchor:end;fill:#dc0000;stroke:none;stroke-width:0.0161189;stroke-dasharray:none"
       x="-1.201265"
       y="98.002304"
       id="text10"><tspan
         sodipodi:role="line"
         style="text-align:end;text-anchor:end;fill:#dc0000;stroke:none;stroke-width:0.0161189"
         x="-1.2012649"
         y="98.002304"
         id="tspan10">y=367</tspan></text><text
       xml:space="preserve"
       style="font-style:normal;font-variant:normal;font-weight:300;font-stretch:condensed;font-size:3.55918px;line-height:1;font-family:Bahnschrift;-inkscape-font-specification:'Bahnschrift Light Condensed';text-align:end;text-decoration-color:#000000;writing-mode:lr-tb;direction:ltr;text-anchor:end;fill:#dc0000;stroke:none;stroke-width:0.0161189;stroke-dasharray:none"
       x="-1.201265"
       y="107.52863"
       id="text11"><tspan
         sodipodi:role="line"
         style="text-align:end;text-anchor:end;fill:#dc0000;stroke:none;stroke-width:0.0161189"
         x="-1.201265"
         y="107.52863"
         id="tspan11">h=70</tspan></text><path
       style="fill:#ffcdcd;stroke:#ff1919;stroke-width:0.132292;stroke-dasharray:none"
       d="M 14.166889,125.07653 H -0.79374999"
       id="path11"
       sodipodi:nodetypes="cc" /><text
       xml:space="preserve"
       style="font-style:normal;font-variant:normal;font-weight:300;font-stretch:condensed;font-size:3.55918px;line-height:1;font-family:Bahnschrift;-inkscape-font-specification:'Bahnschrift Light Condensed';text-align:end;text-decoration-color:#000000;writing-mode:lr-tb;direction:ltr;text-anchor:end;fill:#dc0000;stroke:none;stroke-width:0.0161189;stroke-dasharray:none"
       x="-1.201265"
       y="125.97675"
       id="text16"><tspan
         sodipodi:role="line"
         style="text-align:end;text-anchor:end;fill:#dc0000;stroke:none;stroke-width:0.0161189"
         x="-1.2012651"
         y="125.97675"
         id="tspan16">y=472</tspan></text><path
       style="fill:#ffcdcd;stroke:#ff1919;stroke-width:0.132292;stroke-dasharray:none"
       d="m 3.6662884,142.61041 -4.46003839,1e-5"
       id="path16"
       sodipodi:nodetypes="cc" /><text
       xml:space="preserve"
       style="font-style:normal;font-variant:normal;font-weight:300;font-stretch:condensed;font-size:3.55918px;line-height:1;font-family:Bahnschrift;-inkscape-font-specification:'Bahnschrift Light Condensed';text-align:end;text-decoration-color:#000000;writing-mode:lr-tb;direction:ltr;text-anchor:end;fill:#dc0000;stroke:none;stroke-width:0.0161189;stroke-dasharray:none"
       x="-1.201265"
       y="143.51064"
       id="text17"><tspan
         sodipodi:role="line"
         style="text-align:end;text-anchor:end;fill:#dc0000;stroke:none;stroke-width:0.0161189"
         x="-1.201265"
         y="143.51064"
         id="tspan17">y=539</tspan></text><text
       xml:space="preserve"
       style="font-style:normal;font-variant:normal;font-weight:300;font-stretch:condensed;font-size:3.55918px;line-height:1;font-family:Bahnschrift;-inkscape-font-specification:'Bahnschrift Light Condensed';text-align:end;text-decoration-color:#000000;writing-mode:lr-tb;direction:ltr;text-anchor:end;fill:#dc0000;stroke:none;stroke-width:0.0161189;stroke-dasharray:none"
       x="-1.201265"
       y="154.35855"
       id="text18"><tspan
         sodipodi:role="line"
         style="text-align:end;text-anchor:end;fill:#dc0000;stroke:none;stroke-width:0.0161189"
         x="-1.2012649"
         y="154.35855"
         id="tspan18">h=82</tspan></text><path
       style="fill:#ffcdcd;stroke:#ff1919;stroke-width:0.132292;stroke-dasharray:none"
       d="m 3.6662884,173.56666 -4.46003839,10e-6"
       id="path18"
       sodipodi:nodetypes="cc" /><text
       xml:space="preserve"
       style="font-style:normal;font-variant:normal;font-weight:300;font-stretch:condensed;font-size:3.55918px;line-height:1;font-family:Bahnschrift;-inkscape-font-specification:'Bahnschrift Light Condensed';text-align:end;text-decoration-color:#000000;writing-mode:lr-tb;direction:ltr;text-anchor:end;fill:#dc0000;stroke:none;stroke-width:0.0161189;stroke-dasharray:none"
       x="-1.201265"
       y="174.45386"
       id="text19"><tspan
         sodipodi:role="line"
         style="text-align:end;text-anchor:end;fill:#dc0000;stroke:none;stroke-width:0.0161189"
         x="-1.201265"
         y="174.45386"
         id="tspan19">y=656</tspan></text><text
       xml:space="preserve"
       style="font-style:normal;font-variant:normal;font-weight:300;font-stretch:condensed;font-size:3.55918px;line-height:1;font-family:Bahnschrift;-inkscape-font-specification:'Bahnschrift Light Condensed';text-align:end;text-decoration-color:#000000;writing-mode:lr-tb;direction:ltr;text-anchor:end;fill:#dc0000;stroke:none;stroke-width:0.0161189;stroke-dasharray:none"
       x="-1.201265"
       y="178.79884"
       id="text20"><tspan
         sodipodi:role="line"
         style="text-align:end;text-anchor:end;fill:#dc0000;stroke:none;stroke-width:0.0161189"
         x="-1.2012651"
         y="178.79884"
         id="tspan20">h=30</tspan></text><path
       style="fill:#ffcdcd;stroke:#ff1919;stroke-width:0.132292;stroke-dasharray:none"
       d="m 3.6662884,186.26666 -4.46003839,1e-5"
       id="path20"
       sodipodi:nodetypes="cc" /><text
       xml:space="preserve"
       style="font-style:normal;font-variant:normal;font-weight:300;font-stretch:condensed;font-size:3.55918px;line-height:1;font-family:Bahnschrift;-inkscape-font-specification:'Bahnschrift Light Condensed';text-align:end;text-decoration-color:#000000;writing-mode:lr-tb;direction:ltr;text-anchor:end;fill:#dc0000;stroke:none;stroke-width:0.0161189;stroke-dasharray:none"
       x="-1.201265"
       y="187.16689"
       id="text21"><tspan
         sodipodi:role="line"
         style="text-align:end;text-anchor:end;fill:#dc0000;stroke:none;stroke-width:0.0161189"
         x="-1.2012651"
         y="187.16689"
         id="tspan22">y=704</tspan></text><text
       xml:space="preserve"
       style="font-style:normal;font-variant:normal;font-weight:300;font-stretch:condensed;font-size:3.55918px;line-height:1;font-family:Bahnschrift;-inkscape-font-specification:'Bahnschrift Light Condensed';text-align:end;text-decoration-color:#000000;writing-mode:lr-tb;direction:ltr;text-anchor:end;fill:#dc0000;stroke:none;stroke-width:0.0161189;stroke-dasharray:none"
       x="-1.201265"
       y="195.99677"
       id="text23"><tspan
         sodipodi:role="line"
         style="text-align:end;text-anchor:end;fill:#dc0000;stroke:none;stroke-width:0.0161189"
         x="-1.201265"
         y="195.99677"
         id="tspan23">h=64</tspan></text></g></svg>
